
<svg width="1015" height="369" viewBox="0 0 1015 369" fill="none" xmlns="http://www.w3.org/2000/svg">
<path d="M875.773 263V151.4H909.373V263H875.773ZM892.773 139.6C886.239 139.6 880.906 137.733 876.773 134C872.639 130.267 870.573 125.6 870.573 120C870.573 114.267 872.639 109.533 876.773 105.8C880.906 101.933 886.239 100 892.773 100C899.173 100 904.439 101.933 908.573 105.8C912.706 109.533 914.773 114.267 914.773 120C914.773 125.6 912.706 130.267 908.573 134C904.439 137.733 899.173 139.6 892.773 139.6Z" fill="white"/>
<path d="M782.031 264.4C772.297 264.4 763.764 261.867 756.431 256.8C749.231 251.733 743.631 244.933 739.631 236.4C735.764 227.733 733.831 218 733.831 207.2C733.831 196.533 735.764 186.867 739.631 178.2C743.631 169.533 749.231 162.667 756.431 157.6C763.764 152.533 772.297 150 782.031 150C790.564 150 797.964 152.333 804.231 157C810.631 161.533 815.097 167.933 817.631 176.2V151.4H851.431V263H834.831C829.497 263 825.297 261.533 822.231 258.6C819.164 255.533 817.631 251.333 817.631 246V238.4C815.097 246.533 810.631 252.933 804.231 257.6C797.964 262.133 790.564 264.4 782.031 264.4ZM793.031 234.8C797.431 234.8 801.497 233.733 805.231 231.6C808.964 229.467 811.964 226.333 814.231 222.2C816.497 218.067 817.631 213.067 817.631 207.2C817.631 201.467 816.497 196.533 814.231 192.4C811.964 188.267 808.964 185.067 805.231 182.8C801.497 180.533 797.431 179.4 793.031 179.4C788.497 179.4 784.364 180.533 780.631 182.8C776.897 185.067 773.897 188.267 771.631 192.4C769.497 196.533 768.431 201.467 768.431 207.2C768.431 213.067 769.497 218.067 771.631 222.2C773.897 226.333 776.897 229.467 780.631 231.6C784.497 233.733 788.631 234.8 793.031 234.8Z" fill="white"/>
<path d="M672.156 263V179.4H659.756V151.4H672.156V145.6C672.156 138 673.556 131.6 676.356 126.4C679.289 121.2 683.156 117.067 687.956 114C692.889 110.933 698.422 108.867 704.556 107.8C710.689 106.6 717.089 106.133 723.756 106.4V135C721.356 134.867 718.756 135.067 715.956 135.6C713.156 136 710.822 137.133 708.956 139C707.089 140.733 706.156 143.6 706.156 147.6V151.4H724.556V179.4H706.156V263H672.156Z" fill="white"/>
<path d="M610.734 263V151.4H644.334V263H610.734ZM627.734 139.6C621.2 139.6 615.867 137.733 611.734 134C607.6 130.267 605.534 125.6 605.534 120C605.534 114.267 607.6 109.533 611.734 105.8C615.867 101.933 621.2 100 627.734 100C634.134 100 639.4 101.933 643.534 105.8C647.667 109.533 649.734 114.267 649.734 120C649.734 125.6 647.667 130.267 643.534 134C639.4 137.733 634.134 139.6 627.734 139.6Z" fill="white"/>
<path d="M570.457 264.4C558.191 264.4 548.791 261.067 542.257 254.4C535.724 247.6 532.457 237.8 532.457 225V178.8H514.657V151.4H588.457V178.8H566.257V225.4C566.257 228.6 567.257 231.134 569.257 233C571.391 234.734 573.924 235.6 576.857 235.6C578.191 235.6 579.391 235.467 580.457 235.2C581.657 234.8 582.791 234.267 583.857 233.6L592.257 258.4C589.057 260.134 585.657 261.6 582.057 262.8C578.591 263.867 574.724 264.4 570.457 264.4ZM523.457 160.4V151.4C526.391 151.4 528.791 150.467 530.657 148.6C532.524 146.734 533.457 144.334 533.457 141.4V124.2H566.257V136.2C566.257 138.067 565.791 140.134 564.857 142.4C563.924 144.534 562.457 146.467 560.457 148.2C558.591 149.8 556.324 150.867 553.657 151.4L523.457 160.4Z" fill="white"/>
<path d="M273.785 264.4C261.519 264.4 252.119 261.067 245.585 254.4C239.052 247.6 235.785 237.8 235.785 225V178.8H217.985V151.4H291.785V178.8H269.585V225.4C269.585 228.6 270.585 231.134 272.585 233C274.719 234.734 277.252 235.6 280.185 235.6C281.519 235.6 282.719 235.467 283.785 235.2C284.985 234.8 286.119 234.267 287.185 233.6L295.585 258.4C292.385 260.134 288.985 261.6 285.385 262.8C281.919 263.867 278.052 264.4 273.785 264.4ZM226.785 160.4V151.4C229.719 151.4 232.119 150.467 233.985 148.6C235.852 146.734 236.785 144.334 236.785 141.4V124.2H269.585V136.2C269.585 138.067 269.119 140.134 268.185 142.4C267.252 144.534 265.785 146.467 263.785 148.2C261.919 149.8 259.652 150.867 256.985 151.4L226.785 160.4Z" fill="white"/>
<path d="M157.301 264.4C147.301 264.4 138.368 262.734 130.501 259.4C122.634 255.934 116.168 251.134 111.101 245C106.034 238.734 102.634 231.467 100.901 223.2L133.901 215.8C135.368 222.334 138.034 227.467 141.901 231.2C145.768 234.934 150.434 236.8 155.901 236.8C161.634 236.8 166.034 235.6 169.101 233.2C172.301 230.8 173.901 227.6 173.901 223.6C173.901 220 172.634 217.067 170.101 214.8C167.568 212.4 164.234 210.4 160.101 208.8C155.968 207.2 151.368 205.6 146.301 204C141.368 202.4 136.368 200.6 131.301 198.6C126.368 196.6 121.768 194.134 117.501 191.2C113.368 188.134 110.034 184.334 107.501 179.8C104.968 175.267 103.701 169.667 103.701 163C103.701 154.2 105.834 146.667 110.101 140.4C114.368 134.134 120.301 129.4 127.901 126.2C135.634 122.867 144.568 121.2 154.701 121.2C163.901 121.2 172.101 122.734 179.301 125.8C186.501 128.867 192.368 133.134 196.901 138.6C201.434 143.934 204.368 150.267 205.701 157.6L172.901 166.2C171.834 160.467 169.634 156.134 166.301 153.2C162.968 150.134 158.834 148.6 153.901 148.6C150.968 148.6 148.301 149.134 145.901 150.2C143.501 151.134 141.568 152.534 140.101 154.4C138.768 156.267 138.101 158.6 138.101 161.4C138.101 164.867 139.368 167.734 141.901 170C144.434 172.267 147.834 174.267 152.101 176C156.368 177.6 161.034 179.2 166.101 180.8C171.168 182.267 176.168 184 181.101 186C186.168 188 190.768 190.534 194.901 193.6C199.168 196.534 202.568 200.267 205.101 204.8C207.768 209.2 209.101 214.734 209.101 221.4C209.101 229.267 206.834 236.467 202.301 243C197.901 249.4 191.834 254.6 184.101 258.6C176.368 262.467 167.434 264.4 157.301 264.4Z" fill="white"/>
<path d="M354.062 150C362.595 150 369.995 152.333 376.262 157C382.662 161.533 387.129 167.934 389.662 176.2V151.4H423.462V183.358C421.4 204.032 414.262 210.296 389.534 210.493C389.618 209.428 389.662 208.33 389.662 207.2C389.662 201.467 388.528 196.534 386.262 192.4C383.995 188.267 380.995 185.066 377.262 182.8C373.528 180.533 369.462 179.4 365.062 179.4C360.528 179.4 356.395 180.533 352.662 182.8C348.929 185.066 345.929 188.267 343.662 192.4C341.529 196.534 340.462 201.467 340.462 207.2C340.462 213.067 341.529 218.067 343.662 222.2C345.929 226.333 348.929 229.466 352.662 231.6C356.529 233.733 360.662 234.8 365.062 234.8C369.462 234.8 373.528 233.733 377.262 231.6C380.995 229.466 383.995 226.333 386.262 222.2C386.9 221.036 387.449 219.802 387.907 218.5C413.944 218.503 421.353 218.733 423.462 235.358V263H406.861C401.528 263 397.328 261.533 394.262 258.6C391.195 255.533 389.662 251.333 389.662 246V238.4C387.129 246.534 382.662 252.933 376.262 257.6C369.995 262.133 362.595 264.4 354.062 264.4C344.328 264.4 335.795 261.866 328.462 256.8C321.262 251.733 315.662 244.933 311.662 236.4C307.795 227.734 305.861 218 305.861 207.2C305.861 196.534 307.795 186.867 311.662 178.2C315.662 169.534 321.262 162.666 328.462 157.6C335.795 152.533 344.328 150 354.062 150Z" fill="white"/>
<path d="M468.204 263H434.404V236.226C436.79 221.88 444.337 218.598 468.204 218.503V263ZM503.804 185.6C502.337 185.333 500.937 185.133 499.604 185C498.27 184.867 496.937 184.8 495.604 184.8C490.67 184.8 486.137 186 482.004 188.4C477.871 190.667 474.537 194.066 472.004 198.6C470.076 201.948 468.883 205.914 468.422 210.497C444.382 210.472 436.798 209.324 434.404 190.153V151.4H468.204V178.4C470.604 169.734 474.804 162.933 480.804 158C486.804 152.933 494.47 150.4 503.804 150.4V185.6Z" fill="white"/>
</svg>