<?xml version="1.0" encoding="UTF-8"?>
<svg id="Layer_1" xmlns="http://www.w3.org/2000/svg" version="1.1" viewBox="0 0 1015 369">
  <!-- Generator: Adobe Illustrator 29.6.1, SVG Export Plug-In . SVG Version: 2.1.1 Build 9)  -->
  <path d="M955.5,280.5v-135.8h40.9v135.8h-40.9ZM976.2,130.4c-7.9,0-14.4-2.3-19.5-6.8-5-4.5-7.5-10.2-7.5-17s2.5-12.7,7.5-17.3c5-4.7,11.5-7.1,19.5-7.1s14.2,2.4,19.2,7.1c5,4.5,7.5,10.3,7.5,17.3s-2.5,12.5-7.5,17c-5,4.5-11.4,6.8-19.2,6.8Z"/>
  <path d="M841.5,282.2c-11.8,0-22.2-3.1-31.1-9.2-8.8-6.2-15.6-14.4-20.4-24.8-4.7-10.5-7.1-22.4-7.1-35.5s2.4-24.7,7.1-35.3c4.9-10.5,11.7-18.9,20.4-25.1,8.9-6.2,19.3-9.2,31.1-9.2s19.4,2.8,27,8.5c7.8,5.5,13.2,13.3,16.3,23.4v-30.2h41.1v135.8h-20.2c-6.5,0-11.6-1.8-15.3-5.4-3.7-3.7-5.6-8.8-5.6-15.3v-9.2c-3.1,9.9-8.5,17.7-16.3,23.4-7.6,5.5-16.6,8.3-27,8.3ZM854.9,246.2c5.4,0,10.3-1.3,14.8-3.9,4.5-2.6,8.2-6.4,10.9-11.4,2.8-5,4.1-11.1,4.1-18.2s-1.4-13-4.1-18c-2.8-5-6.4-8.9-10.9-11.7-4.5-2.8-9.5-4.1-14.8-4.1s-10.5,1.4-15.1,4.1c-4.5,2.8-8.2,6.7-10.9,11.7-2.6,5-3.9,11-3.9,18s1.3,13.2,3.9,18.2c2.8,5,6.4,8.8,10.9,11.4,4.7,2.6,9.7,3.9,15.1,3.9Z"/>
  <path d="M707.8,280.5v-101.7h-15.1v-34.1h15.1v-7.1c0-9.2,1.7-17,5.1-23.4,3.6-6.3,8.3-11.4,14.1-15.1,6-3.7,12.7-6.2,20.2-7.5,7.5-1.5,15.2-2,23.4-1.7v34.8c-2.9-.2-6.1,0-9.5.7-3.4.5-6.2,1.9-8.5,4.1-2.3,2.1-3.4,5.6-3.4,10.5v4.6h22.4v34.1h-22.4v101.7h-41.4Z"/>
  <path d="M633.1,280.5v-135.8h40.9v135.8h-40.9ZM653.8,130.4c-7.9,0-14.4-2.3-19.5-6.8-5-4.5-7.5-10.2-7.5-17s2.5-12.7,7.5-17.3c5-4.7,11.5-7.1,19.5-7.1s14.2,2.4,19.2,7.1c5,4.5,7.5,10.3,7.5,17.3s-2.5,12.5-7.5,17c-5,4.5-11.4,6.8-19.2,6.8Z"/>
  <path d="M584.1,282.2c-14.9,0-26.4-4.1-34.3-12.2-7.9-8.3-11.9-20.2-11.9-35.8v-56.2h-21.7v-33.3h89.8v33.3h-27v56.7c0,3.9,1.2,7,3.6,9.2,2.6,2.1,5.7,3.2,9.2,3.2s3.1-.2,4.4-.5c1.5-.5,2.8-1.1,4.1-1.9l10.2,30.2c-3.9,2.1-8,3.9-12.4,5.4-4.2,1.3-8.9,1.9-14.1,1.9ZM526.9,155.7v-10.9c3.6,0,6.5-1.1,8.8-3.4,2.3-2.3,3.4-5.2,3.4-8.8v-20.9h39.9v14.6c0,2.3-.6,4.8-1.7,7.5-1.1,2.6-2.9,4.9-5.4,7.1-2.3,1.9-5,3.2-8.3,3.9l-36.7,10.9Z"/>
  <path d="M223.2,282.2c-14.9,0-26.4-4.1-34.3-12.2-7.9-8.3-11.9-20.2-11.9-35.8v-56.2h-21.7v-33.3h89.8v33.3h-27v56.7c0,3.9,1.2,7,3.6,9.2,2.6,2.1,5.7,3.2,9.2,3.2s3.1-.2,4.4-.5c1.5-.5,2.8-1.1,4.1-1.9l10.2,30.2c-3.9,2.1-8,3.9-12.4,5.4-4.2,1.3-8.9,1.9-14.1,1.9ZM166,155.7v-10.9c3.6,0,6.5-1.1,8.8-3.4,2.3-2.3,3.4-5.2,3.4-8.8v-20.9h39.9v14.6c0,2.3-.6,4.8-1.7,7.5-1.1,2.6-2.9,4.9-5.4,7.1-2.3,1.9-5,3.2-8.3,3.9l-36.7,10.9Z"/>
  <path d="M81.5,282.2c-12.2,0-23-2-32.6-6.1-9.6-4.2-17.4-10.1-23.6-17.5-6.2-7.6-10.3-16.5-12.4-26.5l40.1-9c1.8,7.9,5,14.2,9.7,18.7,4.7,4.5,10.4,6.8,17,6.8s12.3-1.5,16.1-4.4c3.9-2.9,5.8-6.8,5.8-11.7s-1.5-7.9-4.6-10.7c-3.1-2.9-7.1-5.4-12.2-7.3-5-1.9-10.6-3.9-16.8-5.8-6-1.9-12.1-4.1-18.2-6.6-6-2.4-11.6-5.4-16.8-9-5-3.7-9.1-8.4-12.2-13.9-3.1-5.5-4.6-12.3-4.6-20.4s2.6-19.9,7.8-27.5c5.2-7.6,12.4-13.4,21.7-17.3,9.4-4.1,20.3-6.1,32.6-6.1s21.2,1.9,29.9,5.6c8.8,3.7,15.9,8.9,21.4,15.6,5.5,6.5,9.1,14.2,10.7,23.1l-39.9,10.5c-1.3-7-4-12.2-8-15.8-4.1-3.7-9.1-5.6-15.1-5.6s-6.8.6-9.7,1.9c-2.9,1.1-5.3,2.8-7.1,5.1-1.6,2.3-2.4,5.1-2.4,8.5s1.5,7.7,4.6,10.5c3.1,2.8,7.2,5.2,12.4,7.3,5.2,1.9,10.9,3.9,17,5.8,6.2,1.8,12.2,3.9,18.2,6.3,6.2,2.4,11.8,5.5,16.8,9.2,5.2,3.6,9.3,8.1,12.4,13.6,3.2,5.4,4.9,12.1,4.9,20.2s-2.8,18.3-8.3,26.3c-5.4,7.8-12.7,14.1-22.1,19-9.4,4.7-20.3,7.1-32.6,7.1Z"/>
  <path d="M320.9,143c10.4,0,19.4,2.8,27,8.5,7.8,5.5,13.2,13.3,16.3,23.4v-30.2h41.1v38.9c-2.5,25.1-11.2,32.8-41.3,33,.1-1.3.2-2.6.2-4,0-7-1.4-13-4.1-18-2.8-5-6.4-8.9-10.9-11.7-4.5-2.8-9.5-4.1-14.8-4.1s-10.5,1.4-15.1,4.1c-4.5,2.8-8.2,6.7-10.9,11.7-2.6,5-3.9,11-3.9,18s1.3,13.2,3.9,18.2c2.8,5,6.4,8.8,10.9,11.4,4.7,2.6,9.7,3.9,15.1,3.9s10.3-1.3,14.8-3.9c4.5-2.6,8.2-6.4,10.9-11.4.8-1.4,1.4-2.9,2-4.5,31.7,0,40.7.3,43.3,20.5v33.6h-20.2c-6.5,0-11.6-1.8-15.3-5.4-3.7-3.7-5.6-8.8-5.6-15.3v-9.2c-3.1,9.9-8.5,17.7-16.3,23.4-7.6,5.5-16.6,8.3-27,8.3s-22.2-3.1-31.1-9.2c-8.8-6.2-15.6-14.4-20.4-24.8-4.7-10.5-7.1-22.4-7.1-35.5s2.4-24.7,7.1-35.3c4.9-10.5,11.7-18.9,20.4-25.1,8.9-6.2,19.3-9.2,31.1-9.2Z"/>
  <path d="M459.7,280.5h-41.1v-32.6c2.9-17.5,12.1-21.4,41.1-21.6v54.1ZM503,186.3c-1.8-.3-3.5-.6-5.1-.7-1.6-.2-3.2-.2-4.9-.2-6,0-11.5,1.5-16.5,4.4-5,2.8-9.1,6.9-12.2,12.4-2.3,4.1-3.8,8.9-4.4,14.5-29.2,0-38.5-1.4-41.4-24.7v-47.1h41.1v32.8c2.9-10.5,8-18.8,15.3-24.8,7.3-6.2,16.6-9.2,28-9.2v42.8Z"/>
</svg>